HIERARCHY
ROOT Hips
{
  OFFSET 0.0 0.0 0.0
  CHANNELS 6 XPOSITION YPOSITION ZPOSITION ZROTATION XROTATION YROTATION 
  JOINT RightUpLeg
  {
    OFFSET -0.089458038 -0.086670642 0.001016508
    CHANNELS 3 ZROTATION XROTATION YROTATION 
    JOINT RightLeg
    {
      OFFSET 1.524e-006 -0.44256706 0.04075049
      CHANNELS 3 ZROTATION XROTATION YROTATION 
      JOINT RightFoot
      {
        OFFSET 0.001562862 -0.419119812 -0.041630854
        CHANNELS 3 ZROTATION XROTATION YROTATION 
        End Site
        {
          OFFSET 7.5692e-005 -0.04415155 0.084991702
        }
      }
    }
  }
  JOINT Spine
  {
    OFFSET 0.0 0.11890502 0.0
    CHANNELS 3 ZROTATION XROTATION YROTATION 
    JOINT Spine1
    {
      OFFSET 0.0 0.256575052 0.001270508
      CHANNELS 3 ZROTATION XROTATION YROTATION 
      End Site
      {
        OFFSET -0.002899918 0.215084406 0.0252476
      }
      JOINT RightArm
      {
        OFFSET -0.16272758 -0.05365633 0.001021842
        CHANNELS 3 ZROTATION XROTATION YROTATION 
        JOINT RightForeArm
        {
          OFFSET -0.263648698 -0.000263906 -0.014099794
          CHANNELS 3 ZROTATION XROTATION YROTATION 
          End Site
          {
            OFFSET -0.220319092 0.001914652 0.010174732
          }
        }
      }
      JOINT LeftArm
      {
        OFFSET 0.16272758 -0.05365633 0.001020826
        CHANNELS 3 ZROTATION XROTATION YROTATION 
        JOINT LeftForeArm
        {
          OFFSET 0.26260552 -0.000263144 -0.01410081
          CHANNELS 3 ZROTATION XROTATION YROTATION 
          End Site
          {
            OFFSET 0.220897958 0.001915922 0.01017524
          }
        }
      }
    }
  }
  JOINT LeftUpLeg
  {
    OFFSET 0.089458038 -0.086670642 0.001016508
    CHANNELS 3 ZROTATION XROTATION YROTATION 
    JOINT LeftLeg
    {
      OFFSET -3.048e-006 -0.442569346 0.040725598
      CHANNELS 3 ZROTATION XROTATION YROTATION 
      JOINT LeftFoot
      {
        OFFSET -0.002532888 -0.41911778 -0.041605708
        CHANNELS 3 ZROTATION XROTATION YROTATION 
        End Site
        {
          OFFSET -0.00040005 -0.044151042 0.084991194
        }
      }
    }
  }
}
MOTION
Frames: 6
Frame Time: 0.033333
-0.73580498 0.965240163574 0.3545078 -1.62971248443 4.66514598851 -159.500544593 1.42553753285 11.1849427612 3.74717197915 -0.81313274003 16.3169326064 -1.48169161295 -4.54927908631 -43.9368788928 -0.382029182226 -3.53126009453 6.69235082992 -2.02631264795 6.93251564906 -0.693796475264 -3.37254762912 75.0726718847 -6.53866090142 7.98623625308 7.63071466149 14.2234753569 9.94595156842 -80.6120645846 -16.0812296083 -13.505807744 -14.9600643013 47.1037165921 7.59519767781 7.80227023043 -14.8121275266 3.66856760086 0.462440412355 0.758676922438 -1.91306768463 -2.27053481291 -32.0853737016 0.1912052361 
-0.7623429 0.962326783574 0.3315081 -1.4621660231 4.59180085588 -160.496673042 0.104971269703 12.2361925443 5.18797135626 -0.469434686148 17.6734098831 -1.85508386089 -2.85174591835 -43.5621337338 -0.255165995634 -3.4069971823 6.25541167588 -2.10443528446 7.04046209314 -0.473140170494 -3.45171784589 74.6554292887 -8.64014319629 7.308766011 8.12921943316 14.7157723404 8.64431644187 -81.0703566176 -16.5047337802 -12.9131821118 -14.8178529326 47.2781732839 7.61576166985 7.39550514459 -14.98601219 3.40369243796 0.902283250563 3.87556843649 0.627535102578 -3.18361200352 -28.9647285718 0.32334499729 
-0.78848966 0.960691023574 0.3080512 -1.99262017855 4.55236462427 -161.156223429 -1.76407916744 13.0351069649 5.44213977075 -0.381486849197 19.9779652279 -1.68257718811 -0.802825611046 -42.4213589537 -0.114331590394 -4.51558234804 5.96143777268 -2.19919903656 7.83011520412 -0.0525911726136 -3.68280171509 74.1302833642 -10.7996073939 6.44666935236 8.55949659144 15.0406383354 7.14322271609 -81.8044653496 -17.1625031954 -12.7354605896 -14.48666389 47.3959838018 7.6334680815 6.27833122942 -14.5783882079 3.04347509132 0.899124074628 6.73541218443 3.47430762936 -3.27768419895 -25.2871139585 0.422594182635 
-0.81325466 0.960030623574 0.28523692 -2.8941176372 4.32330483894 -161.497145491 -3.86698160804 12.6491483428 4.51787174207 -0.386692707325 24.0322920947 -1.57046379504 2.15714769627 -40.0125117429 -0.0288547911542 -6.27688920573 5.90441636529 -2.26492189151 8.79368926393 -0.0990729611281 -3.87520600958 73.7064223149 -12.9324449528 5.08895709207 8.69850033256 15.7113424214 5.41612784907 -82.5042250602 -17.8447793294 -12.9061179887 -14.099878815 48.0360339987 7.70839696425 4.78799078271 -14.0838005497 2.72424763089 0.327711169036 9.18333362683 4.72398337245 -3.27315108778 -23.6090269794 0.46404113122 
-0.83662266 0.959339743574 0.26446988 -3.58880593239 4.0179936755 -161.876412235 -5.5698327186 10.6002742994 3.00095865784 -0.546889885109 30.1388859014 -2.53752712101 4.58212461226 -35.3070714803 -0.186994731302 -7.41529134885 6.253619605 -2.27192625051 9.17250009303 -0.798977333057 -3.86667638396 73.5394173595 -14.6631884215 3.41036489245 8.59411796657 16.1310558383 3.7465030475 -82.8718531621 -18.0585283919 -13.1556077236 -13.9505478279 48.8605915108 7.80297288614 3.55119549573 -13.7720058292 2.61358874793 -0.453843178541 11.7539717974 4.7831217116 -4.06029773278 -24.0993833354 0.563518460891 
-0.858774 0.958389783574 0.2460752 -3.93776029709 3.96631646424 -162.77164513 -6.59735015564 7.35086388195 1.83649891616 -1.01165400252 37.4629865409 -5.47612380385 4.54917791413 -28.5207628606 -0.453882238686 -7.53235396103 7.04819557483 -2.14763665785 8.82410836517 -1.5898090252 -3.62809830314 73.6276019319 -15.9599271562 2.07827011041 8.54595403386 16.2407964877 2.34596550111 -82.7375443223 -17.3480879729 -13.2511646314 -14.2877679276 48.7203677271 7.78151926195 2.82081967556 -13.3308584248 2.79794878713 -1.16075724555 14.44767034 5.14244259591 -5.08104261037 -25.7691989554 0.644162611143 
